<?xml version="1.0" encoding="UTF-8"?> <svg xmlns="http://www.w3.org/2000/svg" width="136" height="31" viewBox="0 0 136 31" fill="none"><path d="M10.5223 15.7169L2.68298 7.80008C2.38953 7.50373 2.38953 6.9957 2.68298 6.69935L4.6533 4.70957C4.94675 4.41322 5.44981 4.41322 5.74327 4.70957L13.5826 12.6264C13.8761 12.9227 13.8761 13.4307 13.5826 13.7271L11.6123 15.7169C11.3189 16.0132 10.8158 16.0132 10.5223 15.7169Z" fill="#EF5C53"></path><path d="M22.9312 28.2905L15.0918 20.3737C14.7983 20.0773 14.7983 19.5693 15.0918 19.273L17.0621 17.2832C17.3556 16.9868 17.8586 16.9868 18.1521 17.2832L25.9914 25.2C26.2849 25.4963 26.2849 26.0043 25.9914 26.3007L24.0211 28.2905C23.7277 28.5868 23.2665 28.5868 22.9312 28.2905Z" fill="#EF5C53"></path><path d="M13.5826 20.3737L5.74327 28.2905C5.44981 28.5868 4.94675 28.5868 4.6533 28.2905L2.68298 26.3007C2.38953 26.0043 2.38953 25.4963 2.68298 25.2L10.5223 17.2832C10.8158 16.9868 11.3189 16.9868 11.6123 17.2832L13.5826 19.273C13.8761 19.5693 13.8761 20.0773 13.5826 20.3737Z" fill="#EF5C53"></path><path d="M25.9914 7.80008L18.1521 15.7169C17.8586 16.0132 17.3556 16.0132 17.0621 15.7169L15.0918 13.7271C14.7983 13.4307 14.7983 12.9227 15.0918 12.6264L22.9312 4.70957C23.2246 4.41322 23.7277 4.41322 24.0211 4.70957L25.9914 6.69935C26.2849 6.9957 26.2849 7.50373 25.9914 7.80008Z" fill="#EF5C53"></path><path d="M12.1992 6.57226V2.76204C12.1992 2.33869 12.5346 2 12.9538 2H15.7206C16.1399 2 16.4752 2.33869 16.4752 2.76204V6.57226C16.4752 6.99562 16.1399 7.33431 15.7206 7.33431H12.9538C12.5346 7.37664 12.1992 7.03796 12.1992 6.57226Z" fill="#FF7976"></path><path d="M12.1992 30.238V26.4278C12.1992 26.0045 12.5346 25.6658 12.9538 25.6658H15.7206C16.1399 25.6658 16.4752 26.0045 16.4752 26.4278V30.238C16.4752 30.6614 16.1399 31.0001 15.7206 31.0001H12.9538C12.5346 31.0001 12.1992 30.6614 12.1992 30.238Z" fill="#FF7976"></path><path d="M4.52755 18.6803H0.754591C0.335374 18.6803 0 18.3416 0 17.9183V15.1241C0 14.7007 0.335374 14.3621 0.754591 14.3621H4.52755C4.94677 14.3621 5.28214 14.7007 5.28214 15.1241V17.9183C5.32406 18.3416 4.98869 18.6803 4.52755 18.6803Z" fill="#FF7976"></path><path d="M27.9619 18.6803H24.1889C23.7697 18.6803 23.4343 18.3416 23.4343 17.9183V15.1241C23.4343 14.7007 23.7697 14.3621 24.1889 14.3621H27.9619C28.3811 14.3621 28.7165 14.7007 28.7165 15.1241V17.9183C28.7165 18.3416 28.3811 18.6803 27.9619 18.6803Z" fill="#FF7976"></path><path d="M56.8789 9.97005C54.5526 9.97005 52.8512 11.055 51.8443 12.735C51.0457 11.02 49.4138 9.97005 47.1916 9.97005C45.0041 9.97005 43.3028 11.02 42.2611 12.875L41.4973 10.39H38.9279V26H42.7125V17.635C42.7125 15.535 43.7889 13.4 46.15 13.4C47.8513 13.4 48.6846 14.73 48.6846 16.34V26H52.4346V17.635C52.4346 15.535 53.5109 13.4 55.9067 13.4C57.4345 13.4 58.4067 14.485 58.4067 16.375V26H62.1913V15.955C62.1913 12.28 60.2816 9.97005 56.8789 9.97005Z" fill="white"></path><path d="M73.7534 26.455C78.6144 26.455 82.0865 23.025 82.0865 18.195C82.0865 13.365 78.6144 9.97005 73.7534 9.97005C68.8923 9.97005 65.4549 13.365 65.4549 18.195C65.4549 23.025 68.8923 26.455 73.7534 26.455ZM73.7534 23.06C71.1145 23.06 69.2743 21.065 69.2743 18.195C69.2743 15.325 71.1145 13.33 73.7534 13.33C76.4269 13.33 78.2324 15.325 78.2324 18.195C78.2324 21.065 76.4269 23.06 73.7534 23.06Z" fill="white"></path><path d="M89.3705 26L89.3358 0.800049H85.5511V26H89.3705Z" fill="white"></path><path d="M95.7343 7.13505C97.1579 7.13505 98.0954 6.15505 98.0954 4.89505C98.0954 3.60005 97.1926 2.58505 95.7343 2.58505C94.276 2.58505 93.3732 3.60005 93.3732 4.86005C93.3732 6.12005 94.276 7.13505 95.7343 7.13505ZM97.6093 26V10.39H93.8246V26H97.6093Z" fill="white"></path><path d="M110.606 9.97005C108.071 9.97005 106.404 11.265 105.397 12.84L104.634 10.39H102.064V26H105.849V17.4251C105.849 15.1151 107.272 13.4 109.634 13.4C111.508 13.4 112.272 14.625 112.272 16.585V26H116.057V16.235C116.057 12.245 114.147 9.97005 110.606 9.97005Z" fill="white"></path><path d="M127.667 26.455C132.528 26.455 136 23.025 136 18.195C136 13.365 132.528 9.97005 127.667 9.97005C122.806 9.97005 119.368 13.365 119.368 18.195C119.368 23.025 122.806 26.455 127.667 26.455ZM127.667 23.06C125.028 23.06 123.188 21.065 123.188 18.195C123.188 15.325 125.028 13.33 127.667 13.33C130.34 13.33 132.146 15.325 132.146 18.195C132.146 21.065 130.34 23.06 127.667 23.06Z" fill="white"></path></svg> 